<?xml version="1.0" encoding="UTF-8" standalone="no"?>
<svg
   xmlns:dc="http://purl.org/dc/elements/1.1/"
   xmlns:cc="http://creativecommons.org/ns#"
   xmlns:rdf="http://www.w3.org/1999/02/22-rdf-syntax-ns#"
   xmlns:svg="http://www.w3.org/2000/svg"
   xmlns="http://www.w3.org/2000/svg"
   viewBox="0 0 396.90668 397.72"
   height="397.72"
   width="396.90668"
   xml:space="preserve"
   id="svg2"
   version="1.1"><metadata
     id="metadata8"><rdf:RDF><cc:Work
         rdf:about=""><dc:format>image/svg+xml</dc:format><dc:type
           rdf:resource="http://purl.org/dc/dcmitype/StillImage" /></cc:Work></rdf:RDF></metadata><defs
     id="defs6" /><g
     transform="matrix(1.3333333,0,0,-1.3333333,0,397.72)"
     id="g10"><g
       transform="scale(0.1)"
       id="g12"><path
         id="path14"
         style="fill:#eb222c;fill-opacity:1;fill-rule:nonzero;stroke:none"
         d="m 2490.2,1038.78 v 100.01 h -77.29 l -1.9,72.73 h -70.45 l 1.9,68.17 h -175.01 v 77.36 h -216.76 -1.19 -216.76 v -77.36 h -175 l 1.89,-68.17 h -70.45 l -1.9,-72.73 H 1410 v -100.01 h -75.01 v -47.725 h 152.29 v -65.926 h 68.17 v -81.816 h 81.82 v 79.546 h 70.47 v 61.379 h 165.25 v -59.109 h 76.51 1.19 76.51 v 59.109 h 165.25 v -61.379 h 70.46 v -79.546 h 81.82 v 81.816 h 68.18 v 65.926 h 152.29 v 47.725 z m -854.47,23.95 h -75.9 v 76.06 h 75.9 z m 239.15,0 H 1799 v 76.06 h 75.88 z m 228.19,0 h -75.88 v 76.06 h 75.88 z m 237.3,0 h -75.9 v 76.06 h 75.9 v -76.06" /><path
         id="path16"
         style="fill:#ffffff;fill-opacity:1;fill-rule:nonzero;stroke:none"
         d="m 1559.83,1062.73 h 75.9 v 76.06 h -75.9 v -76.06" /><path
         id="path18"
         style="fill:#ffffff;fill-opacity:1;fill-rule:nonzero;stroke:none"
         d="m 1799,1062.73 h 75.88 v 76.06 H 1799 v -76.06" /><path
         id="path20"
         style="fill:#ffffff;fill-opacity:1;fill-rule:nonzero;stroke:none"
         d="m 2264.47,1062.73 h 75.9 v 76.06 h -75.9 v -76.06" /><path
         id="path22"
         style="fill:#ffffff;fill-opacity:1;fill-rule:nonzero;stroke:none"
         d="m 2027.19,1062.73 h 75.88 v 76.06 h -75.88 v -76.06" /><path
         id="path24"
         style="fill:#94cc48;fill-opacity:1;fill-rule:nonzero;stroke:none"
         d="m 263.324,2339.44 v 95.49 h -95.488 v -95.49 h 95.488" /><path
         id="path26"
         style="fill:#94cc48;fill-opacity:1;fill-rule:nonzero;stroke:none"
         d="m 575.91,2434.93 v 71.53 h -72.183 v 95.07 h 143.164 v 147.11 h -75.485 v 91 h -69.468 v 73.57 h -92.911 v 69.66 h -73.234 -0.559 -73.238 v -69.66 h -92.918 v -73.57 H 99.6094 v -91 H 24.1016 V 2601.53 H 167.281 v -95.07 H 95.0977 v -71.53 H 0 v -95.49 h 95.4727 v 95.49 h 72.3633 v 70.71 h 94.918 v 95.89 h 72.48 0.559 72.445 v -95.89 h 94.926 v -70.71 h 72.387 v -95.49 h 95.465 v 95.49 z m -313.156,237.93 h -95.473 v 99.39 h 95.473 z m 145.484,0 v 99.39 h 95.489 v -99.39 h -95.489" /><path
         id="path28"
         style="fill:#94cc48;fill-opacity:1;fill-rule:nonzero;stroke:none"
         d="m 407.691,2339.44 h 95.473 v 95.49 h -95.473 v -95.49" /><path
         id="path30"
         style="fill:#94cc48;fill-opacity:1;fill-rule:nonzero;stroke:none"
         d="m 334.758,2506.46 h -71.235 v -71.53 h 143.965 v 71.53 h -71.23 -1.5" /><path
         id="path32"
         style="fill:#ffffff;fill-opacity:1;fill-rule:nonzero;stroke:none"
         d="m 167.281,2672.86 h 95.473 v 99.39 h -95.473 v -99.39" /><path
         id="path34"
         style="fill:#ffffff;fill-opacity:1;fill-rule:nonzero;stroke:none"
         d="m 503.727,2772.25 h -95.489 v -99.39 h 95.489 v 99.39" /><path
         id="path36"
         style="fill:#303381;fill-opacity:1;fill-rule:nonzero;stroke:none"
         d="m 1159.28,2976.72 h -72.75 v -71.53 h 72.75 v 71.53" /><path
         id="path38"
         style="fill:#ffffff;fill-opacity:1;fill-rule:nonzero;stroke:none"
         d="m 1157.45,2671.3 h 72.72 v 71.53 h -72.72 v -71.53" /><path
         id="path40"
         style="fill:#303381;fill-opacity:1;fill-rule:nonzero;stroke:none"
         d="m 1011.84,2339.44 h 72.75 v 71.52 h -72.75 v -71.52" /><path
         id="path42"
         style="fill:#303381;fill-opacity:1;fill-rule:nonzero;stroke:none"
         d="m 1610.17,2976.72 h -72.72 v -71.53 h 72.72 v 71.53" /><path
         id="path44"
         style="fill:#303381;fill-opacity:1;fill-rule:nonzero;stroke:none"
         d="m 1702.16,2902.07 v -163.35 h -94.44 v 72.94 h -70.57 v 94.57 h -72.71 v -94.57 h -115.59 -1 -115.56 v 94.57 h -72.75 v -94.57 h -70.56 v -72.94 h -94.46 v 163.35 h -70.844 v -305.03 h 68.879 v -90.52 h 92.305 v -96.62 h 72.73 v 96.62 h 190.26 1 190.24 v -96.62 h 72.73 v 96.62 h 92.31 v 90.52 H 1773 v 305.03 z M 1230.17,2671.3 h -72.72 v 71.53 h 72.72 z m 236.34,71.53 h 72.75 v -71.53 h -72.75 v 71.53" /><path
         id="path46"
         style="fill:#ffffff;fill-opacity:1;fill-rule:nonzero;stroke:none"
         d="m 1539.26,2742.83 h -72.75 v -71.53 h 72.75 v 71.53" /><path
         id="path48"
         style="fill:#303381;fill-opacity:1;fill-rule:nonzero;stroke:none"
         d="m 1612.11,2339.44 h 72.74 v 71.52 h -72.74 v -71.52" /><path
         id="path50"
         style="fill:#ffffff;fill-opacity:1;fill-rule:nonzero;stroke:none"
         d="m 2281.75,2666.98 h 142.23 v 74.35 h -142.23 v -74.35" /><path
         id="path52"
         style="fill:#cd37a1;fill-opacity:1;fill-rule:nonzero;stroke:none"
         d="m 2976.79,2574.28 v 236.17 h -73.06 v 70.45 h -233.52 v 94 h -158.83 -1.69 -158.79 v -94 h -233.54 v -70.45 h -73.06 v -236.17 h 234.84 v -93.93 h -91.33 v -71.75 h -142.22 v -69.16 h 142.22 v 65.24 h 161.8 v 99.17 h 74.37 v -93.95 h 85.71 1.69 85.73 v 93.95 h 74.37 v -99.17 h 161.8 v -65.24 h 142.22 v 69.16 h -142.22 v 71.75 h -91.34 v 93.93 z m -552.81,92.7 h -142.23 v 74.35 h 142.23 z m 315.37,0 h -142.24 v 74.35 h 142.24 v -74.35" /><path
         id="path54"
         style="fill:#ffffff;fill-opacity:1;fill-rule:nonzero;stroke:none"
         d="m 2597.11,2666.98 h 142.24 v 74.35 h -142.24 v -74.35" /><path
         id="path56"
         style="fill:#eb222c;fill-opacity:1;fill-rule:nonzero;stroke:none"
         d="m 1118.14,283.367 v 68.996 H 814.043 v 139.61 h -69.801 v 70.957 h -19.035 -1.621 -19.055 V 491.973 H 634.746 V 352.363 H 330.633 V 283.367 H 259.789 V 0 H 723.586 725.207 1189 v 283.367 h -70.86" /><path
         id="path58"
         style="fill:#eb222c;fill-opacity:1;fill-rule:nonzero;stroke:none"
         d="M 2067.4,528.848 H 1832.78 V 446.73 h 78.2 V 67.4219 h 74.3 V 446.73 h 82.12 v 82.118" /><path
         id="path60"
         style="fill:#eb222c;fill-opacity:1;fill-rule:nonzero;stroke:none"
         d="m 775.508,844.504 h -101.68 v 344.086 h 101.68 V 844.504" /><path
         id="path62"
         style="fill:#303381;fill-opacity:1;fill-rule:nonzero;stroke:none"
         d="m 1395.39,1773.13 v 256.48 h -94.11 v -256.48 h -67.53 l 57.3,-90.72 57.29,-90.78 57.29,90.78 57.3,90.72 h -67.54" /><path
         id="path64"
         style="fill:#cd37a1;fill-opacity:1;fill-rule:nonzero;stroke:none"
         d="m 2400.8,1974.32 c 0,0 74,-74.01 109.2,-109.25 -30.89,-30.88 -109.5,-109.46 -109.5,-109.46 l 156.7,-156.7 55.3,55.29 c 0,0 -67.24,67.26 -101.38,101.41 30.89,30.89 109.48,109.46 109.48,109.46 l -164.51,164.54 -55.29,-55.29" /><path
         id="path66"
         style="fill:#94cc48;fill-opacity:1;fill-rule:nonzero;stroke:none"
         d="m 264.137,1922.54 -29.114,-29.15 c 0,0 60.864,-60.85 86.485,-86.48 -26.231,-26.23 -88.555,-88.55 -88.555,-88.55 l 111.512,-111.54 58.25,58.26 c 0,0 -28.902,28.92 -53.262,53.27 26.262,26.23 88.61,88.56 88.61,88.56 0,0 -60.907,60.87 -86.536,86.5 21.485,21.5 45.039,45.05 45.039,45.05 l -58.281,58.25 -74.148,-74.17" /></g></g></svg>